<?xml version="1.0" encoding="utf-8"?>
<!-- Generator: Adobe Illustrator 28.1.0, SVG Export Plug-In . SVG Version: 6.00 Build 0)  -->
<svg version="1.1" id="Layer_1" xmlns="http://www.w3.org/2000/svg" xmlns:xlink="http://www.w3.org/1999/xlink" x="0px" y="0px"
	 viewBox="0 0 826.6 700" style="enable-background:new 0 0 826.6 700;" xml:space="preserve">
<style type="text/css">
	.st0{fill:#FFFFFF;}
	.st1{fill:none;stroke:#000000;}
	.st2{font-family:'ArialMT';}
	.st3{font-size:10px;}
	.st4{fill:#7B7B7B;}
	.st5{font-family:'Arial-BoldMT';}
	.st6{font-size:12px;}
	.st7{enable-background:new    ;}
	.st8{fill:none;stroke:#FF7F0E;stroke-dasharray:4;}
	.st9{fill:none;stroke:#FF7F0E;}
	.st10{fill:#FF7F0E;}
	.st11{fill:none;stroke:#FFFFFF;}
	.st12{fill:#FFFFFF;stroke:#FF7F0E;}
	.st13{fill:none;stroke:#D62728;stroke-dasharray:4;}
	.st14{fill:none;stroke:#D62728;}
	.st15{fill:#D62728;}
	.st16{fill:none;stroke:#8C564B;stroke-dasharray:4;}
	.st17{fill:none;stroke:#8C564B;}
	.st18{fill:#8C564B;}
	.st19{fill:#FFFFFF;stroke:#8C564B;}
	.st20{fill:none;stroke:#2CA02C;stroke-dasharray:4;}
	.st21{fill:none;stroke:#2CA02C;}
	.st22{fill:#2CA02C;}
	.st23{fill:none;stroke:#9467BD;stroke-dasharray:4;}
	.st24{fill:none;stroke:#9467BD;}
	.st25{fill:#9467BD;}
	.st26{fill:#FFFFFF;stroke:#9467BD;}
	.st27{fill:none;stroke:#1F77B4;stroke-dasharray:4;}
	.st28{fill:none;stroke:#1F77B4;}
	.st29{fill:#1F77B4;}
	.st30{fill:none;stroke:#E377C2;stroke-dasharray:4;}
	.st31{fill:none;stroke:#E377C2;}
	.st32{fill:#E377C2;}
</style>
<rect id="background" x="1.2" y="40" class="st0" width="805" height="613"/>
<path class="st1" d="M45.2,623.5h6.5v-573h-6.5"/>
<g transform="translate(0,573.5)">
	<line class="st1" x1="51.2" y1="50" x2="45.2" y2="50"/>
	<text transform="matrix(1 0 0 1 28.3363 53.2)" class="st2 st3">4.0</text>
</g>
<g transform="translate(0,535.3)">
	<line class="st1" x1="51.2" y1="50" x2="45.2" y2="50"/>
	<text transform="matrix(1 0 0 1 28.3363 53.2)" class="st2 st3">4.2</text>
</g>
<g transform="translate(0,497.09999999999997)">
	<line class="st1" x1="51.2" y1="50" x2="45.2" y2="50"/>
	<text transform="matrix(1 0 0 1 28.3363 53.2)" class="st2 st3">4.4</text>
</g>
<g transform="translate(0,458.9000000000001)">
	<line class="st1" x1="51.2" y1="50" x2="45.2" y2="50"/>
	<text transform="matrix(1 0 0 1 28.3363 53.2)" class="st2 st3">4.6</text>
</g>
<g transform="translate(0,420.70000000000005)">
	<line class="st1" x1="51.2" y1="50" x2="45.2" y2="50"/>
	<text transform="matrix(1 0 0 1 28.3363 53.2)" class="st2 st3">4.8</text>
</g>
<g transform="translate(0,382.50000000000006)">
	<line class="st1" x1="51.2" y1="50" x2="45.2" y2="50"/>
	<text transform="matrix(1 0 0 1 28.3363 53.2)" class="st2 st3">5.0</text>
</g>
<g transform="translate(0,344.2999999999999)">
	<line class="st1" x1="51.2" y1="50" x2="45.2" y2="50"/>
	<text transform="matrix(1 0 0 1 28.3363 53.2)" class="st2 st3">5.2</text>
</g>
<g transform="translate(0,306.0999999999999)">
	<line class="st1" x1="51.2" y1="50" x2="45.2" y2="50"/>
	<text transform="matrix(1 0 0 1 28.3363 53.2)" class="st2 st3">5.4</text>
</g>
<g transform="translate(0,267.9000000000001)">
	<line class="st1" x1="51.2" y1="50" x2="45.2" y2="50"/>
	<text transform="matrix(1 0 0 1 28.3363 53.2)" class="st2 st3">5.6</text>
</g>
<g transform="translate(0,229.70000000000002)">
	<line class="st1" x1="51.2" y1="50" x2="45.2" y2="50"/>
	<text transform="matrix(1 0 0 1 28.3363 53.2)" class="st2 st3">5.8</text>
</g>
<g transform="translate(0,191.50000000000003)">
	<line class="st1" x1="51.2" y1="50" x2="45.2" y2="50"/>
	<text transform="matrix(1 0 0 1 28.3363 53.2)" class="st2 st3">6.0</text>
</g>
<g transform="translate(0,153.29999999999995)">
	<line class="st1" x1="51.2" y1="50" x2="45.2" y2="50"/>
	<text transform="matrix(1 0 0 1 28.3363 53.2)" class="st2 st3">6.2</text>
</g>
<g transform="translate(0,115.09999999999991)">
	<line class="st1" x1="51.2" y1="50" x2="45.2" y2="50"/>
	<text transform="matrix(1 0 0 1 28.3363 53.2)" class="st2 st3">6.4</text>
</g>
<g transform="translate(0,76.90000000000005)">
	<line class="st1" x1="51.2" y1="50" x2="45.2" y2="50"/>
	<text transform="matrix(1 0 0 1 28.3363 53.2)" class="st2 st3">6.6</text>
</g>
<g transform="translate(0,38.70000000000005)">
	<line class="st1" x1="51.2" y1="50" x2="45.2" y2="50"/>
	<text transform="matrix(1 0 0 1 28.3363 53.2)" class="st2 st3">6.8</text>
</g>
<g transform="translate(0,0.5)">
	<line class="st1" x1="51.2" y1="50" x2="45.2" y2="50"/>
	<text transform="matrix(1 0 0 1 28.3363 53.2)" class="st2 st3">7.0</text>
</g>
<text transform="matrix(1 0 0 1 13.7902 38.6812)" class="st4 st5 st6">nota-examen</text>
<path class="st1" d="M51.7,629v-5.5h745v5.5"/>
<line class="st1" x1="106.7" y1="623" x2="106.7" y2="629"/>
<text transform="matrix(1 0 0 1 82.9078 641.1995)" class="st7"><tspan x="0" y="0" class="st2 st3">Diseñadora </tspan><tspan x="-9.7" y="12" class="st2 st3">con mención en </tspan><tspan x="-17.5" y="24" class="st2 st3">Visualidad y Medios</tspan></text>
<g transform="translate(161.5,0)">
	<line class="st1" x1="51.2" y1="623" x2="51.2" y2="629"/>
	<text transform="matrix(1 0 0 1 25.6663 639.1)" class="st2 st3">Diseñadora</text>
</g>
<line class="st1" x1="318.7" y1="623" x2="318.7" y2="629"/>
<text transform="matrix(1 0 0 1 298.7791 639.1)" class="st7"><tspan x="0" y="0" class="st2 st3">Diseñador </tspan><tspan x="-5.6" y="12" class="st2 st3">con mención </tspan><tspan x="-21.7" y="24" class="st2 st3">Industrial y Servicios</tspan></text>
<line class="st1" x1="424.7" y1="623" x2="424.7" y2="629"/>
<text transform="matrix(1 0 0 1 401.2914 636.9614)" class="st7"><tspan x="0" y="0" class="st2 st3">Diseñadora </tspan><tspan x="-2.8" y="12" class="st2 st3">con mención </tspan><tspan x="-18.9" y="24" class="st2 st3">Industrial y Servicios</tspan></text>
<line class="st1" x1="530.7" y1="623" x2="530.7" y2="629"/>
<text transform="matrix(1 0 0 1 510.143 636.9608)" class="st7"><tspan x="0" y="0" class="st2 st3">Diseñador </tspan><tspan x="-12.5" y="12" class="st2 st3">con mención en </tspan><tspan x="-20.3" y="24" class="st2 st3">Visualidad y Medios</tspan></text>
<g transform="translate(585.5,0)">
	<line class="st1" x1="51.2" y1="623" x2="51.2" y2="629"/>
	<text transform="matrix(1 0 0 1 28.4471 639.1)" class="st2 st3">Diseñador</text>
</g>
<line class="st1" x1="741.8" y1="623.1" x2="741.8" y2="629.1"/>
<text transform="matrix(1 0 0 1 714.8265 639.0999)" class="st7"><tspan x="0" y="0" class="st2 st3">Diseñadora </tspan><tspan x="-2.8" y="12" class="st2 st3">con mención </tspan><tspan x="-18.9" y="24" class="st2 st3">Industrial y Servicios</tspan></text>
<g id="boxplots">
	<g>
		<line class="st8" x1="106.2" y1="50" x2="106.2" y2="599.1"/>
		<line class="st9" x1="96.2" y1="50" x2="116.2" y2="50"/>
		<line class="st9" x1="96.2" y1="599.1" x2="116.2" y2="599.1"/>
		<rect x="96.2" y="145.5" class="st10" width="20" height="181.5"/>
		<line class="st11" x1="96.2" y1="241" x2="116.2" y2="241"/>
		<circle class="st12" cx="106.2" cy="623" r="1"/>
		<circle class="st12" cx="106.2" cy="623" r="1"/>
	</g>
	<g>
		<line class="st13" x1="212.2" y1="50" x2="212.2" y2="527.5"/>
		<line class="st14" x1="202.2" y1="50" x2="222.2" y2="50"/>
		<line class="st14" x1="202.2" y1="527.5" x2="222.2" y2="527.5"/>
		<rect x="202.2" y="131.2" class="st15" width="20" height="162.4"/>
		<line class="st11" x1="202.2" y1="221.9" x2="222.2" y2="221.9"/>
	</g>
	<g>
		<line class="st16" x1="318.2" y1="93" x2="318.2" y2="436.8"/>
		<line class="st17" x1="308.2" y1="93" x2="328.2" y2="93"/>
		<line class="st17" x1="308.2" y1="436.8" x2="328.2" y2="436.8"/>
		<rect x="308.2" y="221.9" class="st18" width="20" height="85.9"/>
		<line class="st11" x1="308.2" y1="260.1" x2="328.2" y2="260.1"/>
		<circle class="st19" cx="318.2" cy="527.5" r="1"/>
		<circle class="st19" cx="318.2" cy="88.2" r="1"/>
	</g>
	<g>
		<line class="st20" x1="424.2" y1="50" x2="424.2" y2="623"/>
		<line class="st21" x1="414.2" y1="50" x2="434.2" y2="50"/>
		<line class="st21" x1="414.2" y1="623" x2="434.2" y2="623"/>
		<rect x="414.2" y="116.8" class="st22" width="20" height="219.6"/>
		<line class="st11" x1="414.2" y1="241" x2="434.2" y2="241"/>
	</g>
	<g>
		<line class="st23" x1="530.2" y1="145.5" x2="530.2" y2="479.8"/>
		<line class="st24" x1="520.2" y1="145.5" x2="540.2" y2="145.5"/>
		<line class="st24" x1="520.2" y1="479.8" x2="540.2" y2="479.8"/>
		<rect x="520.2" y="241" class="st25" width="20" height="95.5"/>
		<line class="st11" x1="520.2" y1="279.2" x2="540.2" y2="279.2"/>
		<circle class="st26" cx="530.2" cy="527.5" r="1"/>
		<circle class="st26" cx="530.2" cy="527.5" r="1"/>
		<circle class="st26" cx="530.2" cy="623" r="1"/>
	</g>
	<g>
		<line class="st27" x1="636.2" y1="50" x2="636.2" y2="489.3"/>
		<line class="st28" x1="626.2" y1="50" x2="646.2" y2="50"/>
		<line class="st28" x1="626.2" y1="489.3" x2="646.2" y2="489.3"/>
		<rect x="626.2" y="202.8" class="st29" width="20" height="133.7"/>
		<line class="st11" x1="626.2" y1="241" x2="646.2" y2="241"/>
	</g>
	<g>
		<line class="st30" x1="742.2" y1="183.7" x2="742.2" y2="183.7"/>
		<line class="st31" x1="732.2" y1="183.7" x2="752.2" y2="183.7"/>
		<line class="st31" x1="732.2" y1="183.7" x2="752.2" y2="183.7"/>
		<polygon class="st32" points="732.2,183.7 752.2,183.7 752.2,183.7 		"/>
		<line class="st11" x1="732.2" y1="183.7" x2="752.2" y2="183.7"/>
	</g>
</g>
<g>
	<text transform="matrix(1 0 0 1 120.2376 50)" class="st2 st3">7</text>
	<text transform="matrix(1 0 0 1 120.2376 599.125)" class="st2 st3">4.125</text>
	<text transform="matrix(1 0 0 1 120.2376 241)" class="st2 st3">6</text>
	<text transform="matrix(1 0 0 1 72.7747 326.95)" class="st2 st3">5.55</text>
	<text transform="matrix(1 0 0 1 88.3363 145.5)" class="st2 st3">6.5</text>
</g>
<g>
	<text transform="matrix(1 0 0 1 226.2376 50)" class="st2 st3">7</text>
	<text transform="matrix(1 0 0 1 226.2376 527.5)" class="st2 st3">4.5</text>
	<text transform="matrix(1 0 0 1 226.2376 221.9)" class="st2 st3">6.1</text>
	<text transform="matrix(1 0 0 1 173.2132 293.525)" class="st2 st3">5.725</text>
	<text transform="matrix(1 0 0 1 183.2132 131.175)" class="st2 st3">6.575</text>
</g>
<g>
	<text transform="matrix(1 0 0 1 332.2376 92.975)" class="st2 st3">6.774999999999999</text>
	<text transform="matrix(1 0 0 1 332.2376 436.775)" class="st2 st3">4.975000000000001</text>
	<text transform="matrix(1 0 0 1 332.2376 260.1)" class="st2 st3">5.9</text>
	<text transform="matrix(1 0 0 1 284.7747 307.85)" class="st2 st3">5.65</text>
	<text transform="matrix(1 0 0 1 300.3362 221.9)" class="st2 st3">6.1</text>
</g>
<g>
	<text transform="matrix(1 0 0 1 438.2376 50)" class="st2 st3">7</text>
	<text transform="matrix(1 0 0 1 438.2376 623)" class="st2 st3">4</text>
	<text transform="matrix(1 0 0 1 438.2376 241)" class="st2 st3">6</text>
	<text transform="matrix(1 0 0 1 396.3362 336.5)" class="st2 st3">5.5</text>
	<text transform="matrix(1 0 0 1 400.7747 116.85)" class="st2 st3">6.65</text>
</g>
<g>
	<text transform="matrix(1 0 0 1 544.2376 145.5)" class="st2 st3">6.5</text>
	<text transform="matrix(1 0 0 1 544.2376 479.75)" class="st2 st3">4.75</text>
	<text transform="matrix(1 0 0 1 544.2376 279.2)" class="st2 st3">5.8</text>
	<text transform="matrix(1 0 0 1 502.3362 336.5)" class="st2 st3">5.5</text>
	<text transform="matrix(1 0 0 1 520.6761 241)" class="st2 st3">6</text>
</g>
<g>
	<text transform="matrix(1 0 0 1 650.2376 50)" class="st2 st3">7</text>
	<text transform="matrix(1 0 0 1 650.2376 489.3)" class="st2 st3">4.7</text>
	<text transform="matrix(1 0 0 1 650.2376 241)" class="st2 st3">6</text>
	<text transform="matrix(1 0 0 1 608.3362 336.5)" class="st2 st3">5.5</text>
	<text transform="matrix(1 0 0 1 618.3362 202.8)" class="st2 st3">6.2</text>
</g>
<text transform="matrix(1 0 0 1 756.2376 183.7)" class="st2 st3">6.3</text>
<text transform="matrix(1 0 0 1 756.2376 183.7)" class="st2 st3">6.3</text>
<text transform="matrix(1 0 0 1 756.2376 183.7)" class="st2 st3">6.3</text>
<text transform="matrix(1 0 0 1 724.3362 183.7)" class="st2 st3">6.3</text>
</svg>
