<?xml version="1.0" encoding="utf-8"?>
<!-- Generator: Adobe Illustrator 28.1.0, SVG Export Plug-In . SVG Version: 6.00 Build 0)  -->
<svg version="1.1" xmlns="http://www.w3.org/2000/svg" xmlns:xlink="http://www.w3.org/1999/xlink" x="0px" y="0px"
	 viewBox="0 0 869.3 627.3" style="enable-background:new 0 0 869.3 627.3;" xml:space="preserve">
<style type="text/css">
	.st0{fill:#FFFFFF;}
	.st1{fill:#189AF6;}
	.st2{fill:#9B9B9B;}
	.st3{fill:none;stroke:#000000;}
	.st4{font-family:'ArialMT';}
	.st5{font-size:10px;}
	.st6{fill:#7B7B7B;}
	.st7{font-family:'Arial-BoldMT';}
	.st8{font-size:12px;}
	.st9{fill:#00C3FF;}
	.st10{fill:#125389;}
	.st11{fill:#006EA5;}
	.st12{enable-background:new    ;}
	.st13{font-family:'ArialNarrow';}
</style>
<g id="Layer_1">
	<rect id="background" y="-1.1" class="st0" width="869.3" height="628.4"/>
	<rect id="undefined_-_Aprueban" x="64.7" y="558.7" class="st1" width="49.5" height="24"/>
	<rect id="undefined_-_Reprueban" x="115.1" y="374.7" class="st2" width="49.5" height="208"/>
	
		<rect id="undefined_-_Aprueban_00000111899894031319453600000007121113847019663004_" x="170.5" y="502.7" class="st1" width="49.5" height="80"/>
	
		<rect id="undefined_-_Reprueban_00000076569561269110875430000008861842296012628926_" x="221" y="310.7" class="st2" width="49.5" height="272"/>
	
		<rect id="undefined_-_Aprueban_00000065760340272094516830000014267729501152632213_" x="276.4" y="494.7" class="st1" width="49.5" height="88"/>
	
		<rect id="undefined_-_Reprueban_00000037690781783271513630000001110244192942364597_" x="326.8" y="110.7" class="st2" width="49.5" height="472"/>
	
		<rect id="undefined_-_Aprueban_00000158009099421339331620000013947027731943146146_" x="382.3" y="422.7" class="st1" width="49.5" height="160"/>
	
		<rect id="undefined_-_Reprueban_00000061465251432949943800000013913101051907430070_" x="432.7" y="206.7" class="st2" width="49.5" height="376"/>
	
		<rect id="undefined_-_Aprueban_00000072997050940451533950000013176869402776937102_" x="488.1" y="142.7" class="st1" width="49.5" height="440"/>
	
		<rect id="undefined_-_Reprueban_00000067234036453798054040000004044410054234800288_" x="538.6" y="238.7" class="st2" width="49.5" height="344"/>
	
		<rect id="undefined_-_Aprueban_00000106109929813722787250000012753123022189375388_" x="594" y="270.7" class="st1" width="49.5" height="312"/>
	
		<rect id="undefined_-_Reprueban_00000049918455997260378260000001895917658451530157_" x="644.4" y="414.7" class="st2" width="49.5" height="168"/>
	
		<rect id="undefined_-_Aprueban_00000080922808296696788290000016960463221201791398_" x="699.8" y="30.7" class="st1" width="49.5" height="552"/>
	
		<rect id="undefined_-_Reprueban_00000150074748761391409280000017544181070678186663_" x="750.3" y="174.7" class="st2" width="49.5" height="408"/>
	<g id="xAxis" transform="translate(0,560)">
		<path class="st3" d="M60.2,23.2h745"/>
		<g transform="translate(54.91941636467676,0)">
			<line class="st3" x1="59.7" y1="22.7" x2="59.7" y2="28.7"/>
			<text transform="matrix(1 0 0 1 44.1391 38.7765)" class="st4 st5">2021-2</text>
		</g>
		<g transform="translate(160.77961090978454,0)">
			<line class="st3" x1="59.7" y1="22.7" x2="59.7" y2="28.7"/>
			<text transform="matrix(1 0 0 1 44.1391 38.7765)" class="st4 st5">2022-1</text>
		</g>
		<g transform="translate(266.63980545489227,0)">
			<line class="st3" x1="59.7" y1="22.7" x2="59.7" y2="28.7"/>
			<text transform="matrix(1 0 0 1 44.139 38.7765)" class="st4 st5">2022-2</text>
		</g>
		<g transform="translate(372.5,0)">
			<line class="st3" x1="59.7" y1="22.7" x2="59.7" y2="28.7"/>
			<text transform="matrix(1 0 0 1 44.1391 38.7765)" class="st4 st5">2023-1</text>
		</g>
		<g transform="translate(478.3601945451078,0)">
			<line class="st3" x1="59.7" y1="22.7" x2="59.7" y2="28.7"/>
			<text transform="matrix(1 0 0 1 44.139 38.7765)" class="st4 st5">2023-2</text>
		</g>
		<g transform="translate(584.2203890902156,0)">
			<line class="st3" x1="59.7" y1="22.7" x2="59.7" y2="28.7"/>
			<text transform="matrix(1 0 0 1 44.1391 38.7765)" class="st4 st5">2024-1</text>
		</g>
		<g transform="translate(690.0805836353233,0)">
			<line class="st3" x1="59.7" y1="22.7" x2="59.7" y2="28.7"/>
			<text transform="matrix(1 0 0 1 44.1391 38.7765)" class="st4 st5">2024-2</text>
		</g>
	</g>
	<g id="yAxis">
		<path class="st3" d="M60.2,583.2v-560"/>
		<g transform="translate(0,560.5)">
			<line class="st3" x1="59.7" y1="22.7" x2="53.7" y2="22.7"/>
			<text transform="matrix(1 0 0 1 45.1464 25.8765)" class="st4 st5">0</text>
		</g>
		<g transform="translate(0,520.5)">
			<line class="st3" x1="59.7" y1="22.7" x2="53.7" y2="22.7"/>
			<text transform="matrix(1 0 0 1 45.1464 25.8765)" class="st4 st5">5</text>
		</g>
		<g transform="translate(0,480.50000000000006)">
			<line class="st3" x1="59.7" y1="22.7" x2="53.7" y2="22.7"/>
			<text transform="matrix(1 0 0 1 39.5849 25.8765)" class="st4 st5">10</text>
		</g>
		<g transform="translate(0,440.5)">
			<line class="st3" x1="59.7" y1="22.7" x2="53.7" y2="22.7"/>
			<text transform="matrix(1 0 0 1 39.5849 25.8765)" class="st4 st5">15</text>
		</g>
		<g transform="translate(0,400.5)">
			<line class="st3" x1="59.7" y1="22.7" x2="53.7" y2="22.7"/>
			<text transform="matrix(1 0 0 1 39.5849 25.8765)" class="st4 st5">20</text>
		</g>
		<g transform="translate(0,360.49999999999994)">
			<line class="st3" x1="59.7" y1="22.7" x2="53.7" y2="22.7"/>
			<text transform="matrix(1 0 0 1 39.5849 25.8765)" class="st4 st5">25</text>
		</g>
		<g transform="translate(0,320.5)">
			<line class="st3" x1="59.7" y1="22.7" x2="53.7" y2="22.7"/>
			<text transform="matrix(1 0 0 1 39.5849 25.8765)" class="st4 st5">30</text>
		</g>
		<g transform="translate(0,280.5)">
			<line class="st3" x1="59.7" y1="22.7" x2="53.7" y2="22.7"/>
			<text transform="matrix(1 0 0 1 39.5849 25.8765)" class="st4 st5">35</text>
		</g>
		<g transform="translate(0,240.50000000000003)">
			<line class="st3" x1="59.7" y1="22.7" x2="53.7" y2="22.7"/>
			<text transform="matrix(1 0 0 1 39.5849 25.8765)" class="st4 st5">40</text>
		</g>
		<g transform="translate(0,200.49999999999997)">
			<line class="st3" x1="59.7" y1="22.7" x2="53.7" y2="22.7"/>
			<text transform="matrix(1 0 0 1 39.5849 25.8765)" class="st4 st5">45</text>
		</g>
		<g transform="translate(0,160.5)">
			<line class="st3" x1="59.7" y1="22.7" x2="53.7" y2="22.7"/>
			<text transform="matrix(1 0 0 1 39.5849 25.8765)" class="st4 st5">50</text>
		</g>
		<g transform="translate(0,120.50000000000001)">
			<line class="st3" x1="59.7" y1="22.7" x2="53.7" y2="22.7"/>
			<text transform="matrix(1 0 0 1 39.5849 25.8765)" class="st4 st5">55</text>
		</g>
		<g transform="translate(0,80.50000000000003)">
			<line class="st3" x1="59.7" y1="22.7" x2="53.7" y2="22.7"/>
			<text transform="matrix(1 0 0 1 39.5849 25.8765)" class="st4 st5">60</text>
		</g>
		<g transform="translate(0,40.499999999999986)">
			<line class="st3" x1="59.7" y1="22.7" x2="53.7" y2="22.7"/>
			<text transform="matrix(1 0 0 1 39.5849 25.8765)" class="st4 st5">65</text>
		</g>
		<g transform="translate(0,0.5)">
			<line class="st3" x1="59.7" y1="22.7" x2="53.7" y2="22.7"/>
			<text transform="matrix(1 0 0 1 39.5849 25.8765)" class="st4 st5">70</text>
		</g>
	</g>
	<text transform="matrix(1 0 0 1 784.9689 598.8971)" class="st6 st7 st8">Semestres</text>
	<text transform="matrix(1 0 0 1 42.8329 16.6213)" class="st6 st7 st8">Nota</text>
	
		<rect id="undefined_-_Aprueban_00000091735151761129966660000002272623898458215051_" x="64.7" y="574.7" class="st9" width="49.5" height="8"/>
	
		<rect id="undefined_-_Aprueban_00000114034852873694150820000008728930767495696513_" x="170.5" y="542.7" class="st10" width="49.5" height="40"/>
	
		<rect id="undefined_-_Aprueban_00000110470232653040809820000010260964776762129336_" x="276.4" y="550.7" class="st10" width="49.5" height="32"/>
	
		<rect id="undefined_-_Aprueban_00000041284137058154201280000004537529225817308054_" x="382.3" y="526.7" class="st10" width="49.5" height="56"/>
	
		<rect id="undefined_-_Aprueban_00000074436299927903409720000001225756831441772956_" x="382.3" y="494.7" class="st9" width="49.5" height="8"/>
	
		<rect id="undefined_-_Aprueban_00000099627163918946582190000006483620450994451116_" x="382.3" y="502.7" class="st11" width="49.5" height="24"/>
	
		<rect id="undefined_-_Aprueban_00000052106302869473023320000017770024510761634481_" x="488.1" y="398.7" class="st10" width="49.5" height="184"/>
	
		<rect id="undefined_-_Aprueban_00000096047984042194239990000010435455884425925029_" x="488.1" y="382.7" class="st11" width="49.5" height="16"/>
	
		<rect id="undefined_-_Aprueban_00000170977251085404612270000013372667628143188102_" x="488.1" y="342.7" class="st9" width="49.5" height="40"/>
	
		<rect id="undefined_-_Aprueban_00000044177416332049459760000013391453966760263327_" x="594" y="470.7" class="st10" width="49.5" height="112"/>
	
		<rect id="undefined_-_Aprueban_00000115514514095308366970000010262418787190785192_" x="594" y="438.7" class="st9" width="49.5" height="32"/>
	
		<rect id="undefined_-_Aprueban_00000150813578744090875570000000286964356727035791_" x="699.8" y="350.7" class="st10" width="49.5" height="232"/>
	
		<rect id="undefined_-_Aprueban_00000032644435304986593540000005793193977095350665_" x="699.8" y="318.7" class="st11" width="49.5" height="32"/>
	
		<rect id="undefined_-_Aprueban_00000150076046708812109850000009342210897161776261_" x="699.8" y="286.7" class="st9" width="49.5" height="32"/>
	<rect x="99.3" y="44.5" class="st1" width="22" height="22"/>
	<rect x="99.3" y="77.2" class="st10" width="22" height="22"/>
	<rect x="99.3" y="109.9" class="st9" width="22" height="22"/>
	<rect x="99.3" y="142.6" class="st11" width="22" height="22"/>
	<text transform="matrix(1 0 0 1 99.3476 38.3519)" class="st6 st7 st8">Aprobados</text>
	<text transform="matrix(1 0 0 1 365.304 38.865)" class="st6 st7 st8">Reprobados</text>
	<rect x="365.3" y="45.1" class="st2" width="22" height="22"/>
	<text transform="matrix(1 0 0 1 129.6645 59.187)" class="st12"><tspan x="0" y="0" class="st13 st8">Diseñador/a con mención visualidad y medios</tspan><tspan x="0" y="33" class="st13 st8">Diseñador/a con mención industrial y servicios</tspan><tspan x="0" y="66" class="st13 st8">Diseñadora</tspan><tspan x="0" y="99" class="st13 st8">Diseñador</tspan></text>
</g>
<g id="Layer_2">
</g>
</svg>
