<?xml version="1.0" encoding="utf-8"?>
<!-- Generator: Adobe Illustrator 28.0.0, SVG Export Plug-In . SVG Version: 6.00 Build 0)  -->
<svg version="1.1" id="Capa_1" xmlns="http://www.w3.org/2000/svg" xmlns:xlink="http://www.w3.org/1999/xlink" x="0px" y="0px"
	 viewBox="0 0 869.3 647.4" style="enable-background:new 0 0 869.3 647.4;" xml:space="preserve">
<style type="text/css">
	.st0{fill:#FFFFFF;}
	.st1{fill:#189AF6;}
	.st2{fill:#9B9B9B;}
	.st3{fill:none;stroke:#000000;}
	.st4{font-family:'ArialMT';}
	.st5{font-size:10px;}
	.st6{fill:#7B7B7B;}
	.st7{font-family:'Arial-BoldMT';}
	.st8{font-size:12px;}
	.st9{fill:#00C3FF;}
	.st10{fill:#125389;}
	.st11{fill:#006EA5;}
	.st12{enable-background:new    ;}
	.st13{fill:none;stroke:#000000;stroke-width:0.5;stroke-miterlimit:10;}
	.st14{font-size:8px;}
</style>
<rect id="background" x="0.6" class="st0" width="869.3" height="647.4"/>
<rect id="undefined_-_Aprueban" x="64.7" y="578.8" class="st1" width="49.5" height="24"/>
<rect id="undefined_-_Reprueban" x="116.1" y="394.8" class="st2" width="49.5" height="208"/>
<rect id="undefined_-_Aprueban_00000111899894031319453600000007121113847019663004_" x="170.5" y="522.8" class="st1" width="49.5" height="80"/>
<rect id="undefined_-_Reprueban_00000076569561269110875430000008861842296012628926_" x="222" y="330.8" class="st2" width="49.5" height="272"/>
<rect id="undefined_-_Aprueban_00000065760340272094516830000014267729501152632213_" x="276.4" y="514.8" class="st1" width="49.5" height="88"/>
<rect id="undefined_-_Reprueban_00000037690781783271513630000001110244192942364597_" x="327.8" y="130.8" class="st2" width="49.5" height="472"/>
<rect id="undefined_-_Aprueban_00000158009099421339331620000013947027731943146146_" x="382.3" y="442.8" class="st1" width="49.5" height="160"/>
<rect id="undefined_-_Reprueban_00000061465251432949943800000013913101051907430070_" x="433.7" y="226.8" class="st2" width="49.5" height="376"/>
<rect id="undefined_-_Aprueban_00000072997050940451533950000013176869402776937102_" x="488.1" y="162.8" class="st1" width="49.5" height="440"/>
<rect id="undefined_-_Reprueban_00000067234036453798054040000004044410054234800288_" x="539.6" y="258.8" class="st2" width="49.5" height="344"/>
<rect id="undefined_-_Aprueban_00000106109929813722787250000012753123022189375388_" x="594" y="290.8" class="st1" width="49.5" height="312"/>
<rect id="undefined_-_Reprueban_00000049918455997260378260000001895917658451530157_" x="644.4" y="434.8" class="st2" width="49.5" height="168"/>
<rect id="undefined_-_Aprueban_00000080922808296696788290000016960463221201791398_" x="699.8" y="50.8" class="st1" width="49.5" height="552"/>
<rect id="undefined_-_Reprueban_00000150074748761391409280000017544181070678186663_" x="751.3" y="194.8" class="st2" width="49.5" height="408"/>
<path class="st3" d="M60.2,603.3h745"/>
<line class="st3" x1="114.6" y1="602.8" x2="114.6" y2="608.8"/>
<text transform="matrix(1 0 0 1 99.0585 618.8867)" class="st4 st5">2021-2</text>
<line class="st3" x1="220.5" y1="602.8" x2="220.5" y2="608.8"/>
<text transform="matrix(1 0 0 1 204.9187 618.8867)" class="st4 st5">2022-1</text>
<line class="st3" x1="326.3" y1="602.8" x2="326.3" y2="608.8"/>
<text transform="matrix(1 0 0 1 310.7788 618.8867)" class="st4 st5">2022-2</text>
<line class="st3" x1="432.2" y1="602.8" x2="432.2" y2="608.8"/>
<text transform="matrix(1 0 0 1 416.6391 618.8867)" class="st4 st5">2023-1</text>
<line class="st3" x1="538.1" y1="602.8" x2="538.1" y2="608.8"/>
<text transform="matrix(1 0 0 1 522.4992 618.8867)" class="st4 st5">2023-2</text>
<line class="st3" x1="643.9" y1="602.8" x2="643.9" y2="608.8"/>
<text transform="matrix(1 0 0 1 628.3595 618.8867)" class="st4 st5">2024-1</text>
<line class="st3" x1="749.8" y1="602.8" x2="749.8" y2="608.8"/>
<text transform="matrix(1 0 0 1 734.2197 618.8867)" class="st4 st5">2024-2</text>
<path class="st3" d="M60.2,603.3v-560"/>
<line class="st3" x1="59.7" y1="603.3" x2="53.7" y2="603.3"/>
<text transform="matrix(1 0 0 1 45.1464 606.4867)" class="st4 st5">0</text>
<g transform="translate(0,520.5)">
	<line class="st3" x1="59.7" y1="42.8" x2="53.7" y2="42.8"/>
	<text transform="matrix(1 0 0 1 45.1464 45.9867)" class="st4 st5">5</text>
</g>
<g transform="translate(0,480.50000000000006)">
	<line class="st3" x1="59.7" y1="42.8" x2="53.7" y2="42.8"/>
	<text transform="matrix(1 0 0 1 39.5849 45.9867)" class="st4 st5">10</text>
</g>
<g transform="translate(0,440.5)">
	<line class="st3" x1="59.7" y1="42.8" x2="53.7" y2="42.8"/>
	<text transform="matrix(1 0 0 1 39.5849 45.9867)" class="st4 st5">15</text>
</g>
<g transform="translate(0,400.5)">
	<line class="st3" x1="59.7" y1="42.8" x2="53.7" y2="42.8"/>
	<text transform="matrix(1 0 0 1 39.5849 45.9867)" class="st4 st5">20</text>
</g>
<g transform="translate(0,360.49999999999994)">
	<line class="st3" x1="59.7" y1="42.8" x2="53.7" y2="42.8"/>
	<text transform="matrix(1 0 0 1 39.5849 45.9867)" class="st4 st5">25</text>
</g>
<g transform="translate(0,320.5)">
	<line class="st3" x1="59.7" y1="42.8" x2="53.7" y2="42.8"/>
	<text transform="matrix(1 0 0 1 39.5849 45.9867)" class="st4 st5">30</text>
</g>
<g transform="translate(0,280.5)">
	<line class="st3" x1="59.7" y1="42.8" x2="53.7" y2="42.8"/>
	<text transform="matrix(1 0 0 1 39.5849 45.9867)" class="st4 st5">35</text>
</g>
<g transform="translate(0,240.50000000000003)">
	<line class="st3" x1="59.7" y1="42.8" x2="53.7" y2="42.8"/>
	<text transform="matrix(1 0 0 1 39.5849 45.9867)" class="st4 st5">40</text>
</g>
<g transform="translate(0,200.49999999999997)">
	<line class="st3" x1="59.7" y1="42.8" x2="53.7" y2="42.8"/>
	<text transform="matrix(1 0 0 1 39.5849 45.9867)" class="st4 st5">45</text>
</g>
<g transform="translate(0,160.5)">
	<line class="st3" x1="59.7" y1="42.8" x2="53.7" y2="42.8"/>
	<text transform="matrix(1 0 0 1 39.5849 45.9867)" class="st4 st5">50</text>
</g>
<g transform="translate(0,120.50000000000001)">
	<line class="st3" x1="59.7" y1="42.8" x2="53.7" y2="42.8"/>
	<text transform="matrix(1 0 0 1 39.5849 45.9867)" class="st4 st5">55</text>
</g>
<g transform="translate(0,80.50000000000003)">
	<line class="st3" x1="59.7" y1="42.8" x2="53.7" y2="42.8"/>
	<text transform="matrix(1 0 0 1 39.5849 45.9867)" class="st4 st5">60</text>
</g>
<g transform="translate(0,40.499999999999986)">
	<line class="st3" x1="59.7" y1="42.8" x2="53.7" y2="42.8"/>
	<text transform="matrix(1 0 0 1 39.5849 45.9867)" class="st4 st5">65</text>
</g>
<g transform="translate(0,0.5)">
	<line class="st3" x1="59.7" y1="42.8" x2="53.7" y2="42.8"/>
	<text transform="matrix(1 0 0 1 39.5849 45.9867)" class="st4 st5">70</text>
</g>
<text transform="matrix(1 0 0 1 784.9689 619.0073)" class="st6 st7 st8">Semestres</text>
<text transform="matrix(1 0 0 1 42.8329 34.7314)" class="st6 st7 st8">Nota</text>
<rect id="undefined_-_Aprueban_00000091735151761129966660000002272623898458215051_" x="64.7" y="594.8" class="st9" width="49.5" height="8"/>
<rect id="undefined_-_Aprueban_00000114034852873694150820000008728930767495696513_" x="170.5" y="562.8" class="st10" width="49.5" height="40"/>
<rect id="undefined_-_Aprueban_00000110470232653040809820000010260964776762129336_" x="276.4" y="570.8" class="st10" width="49.5" height="32"/>
<rect id="undefined_-_Aprueban_00000041284137058154201280000004537529225817308054_" x="382.3" y="546.8" class="st10" width="49.5" height="56"/>
<rect id="undefined_-_Aprueban_00000074436299927903409720000001225756831441772956_" x="382.3" y="514.8" class="st9" width="49.5" height="8"/>
<rect id="undefined_-_Aprueban_00000099627163918946582190000006483620450994451116_" x="382.3" y="522.8" class="st11" width="49.5" height="24"/>
<rect id="undefined_-_Aprueban_00000052106302869473023320000017770024510761634481_" x="488.1" y="418.8" class="st10" width="49.5" height="184"/>
<rect id="undefined_-_Aprueban_00000096047984042194239990000010435455884425925029_" x="488.1" y="402.8" class="st11" width="49.5" height="16"/>
<rect id="undefined_-_Aprueban_00000170977251085404612270000013372667628143188102_" x="488.1" y="362.8" class="st9" width="49.5" height="40"/>
<rect id="undefined_-_Aprueban_00000044177416332049459760000013391453966760263327_" x="594" y="490.8" class="st10" width="49.5" height="112"/>
<rect id="undefined_-_Aprueban_00000115514514095308366970000010262418787190785192_" x="594" y="458.8" class="st9" width="49.5" height="32"/>
<rect id="undefined_-_Aprueban_00000150813578744090875570000000286964356727035791_" x="699.8" y="370.8" class="st10" width="49.5" height="232"/>
<rect id="undefined_-_Aprueban_00000032644435304986593540000005793193977095350665_" x="699.8" y="338.8" class="st11" width="49.5" height="32"/>
<rect id="undefined_-_Aprueban_00000150076046708812109850000009342210897161776261_" x="699.8" y="306.8" class="st9" width="49.5" height="32"/>
<g>
	<text transform="matrix(1 0 0 1 141.4113 34.7316)" class="st6 st7 st8">Aprobados</text>
</g>
<g>
	<text transform="matrix(1 0 0 1 131.4006 194.2765)" class="st4 st8">Reprobados</text>
</g>
<rect x="99.3" y="180.4" class="st2" width="22" height="22"/>
<g>
	<rect x="99.3" y="45.4" class="st1" width="22" height="22"/>
	<text transform="matrix(1 0 0 1 128.3788 52.4183)" class="st12"><tspan x="0" y="0" class="st4 st8">Diseñador/a con </tspan><tspan x="0" y="14.4" class="st4 st8">mención visualidad y medios</tspan></text>
</g>
<g>
	<rect x="99.3" y="77.9" class="st10" width="22" height="22"/>
	<text transform="matrix(1 0 0 1 129.1229 84.9357)" class="st12"><tspan x="0" y="0" class="st4 st8">Diseñador/a con </tspan><tspan x="0" y="14.4" class="st4 st8">mención industrial y servicios</tspan></text>
</g>
<g>
	<rect x="99.3" y="111.6" class="st9" width="22" height="22"/>
	<text transform="matrix(1 0 0 1 129.6645 125.7539)" class="st4 st8">Diseñadora</text>
</g>
<g>
	<rect x="99.3" y="144.4" class="st11" width="22" height="22"/>
	<text transform="matrix(1 0 0 1 129.6645 158.6039)" class="st4 st8">Diseñador</text>
</g>
<g id="Layer_2">
</g>
<g>
	<g>
		<line class="st13" x1="64.9" y1="576" x2="113.9" y2="576"/>
		<g>
			<rect x="64.7" y="574.4" width="0.5" height="3.2"/>
		</g>
		<g>
			<rect x="113.7" y="574.4" width="0.5" height="3.2"/>
		</g>
	</g>
</g>
<g>
	<g>
		<line class="st13" x1="116.3" y1="391.9" x2="165.4" y2="391.9"/>
		<g>
			<rect x="116.1" y="390.3" width="0.5" height="3.3"/>
		</g>
		<g>
			<rect x="165.1" y="390.3" width="0.5" height="3.2"/>
		</g>
	</g>
</g>
<g>
	<g>
		<line class="st13" x1="170.8" y1="520.2" x2="219.8" y2="520.2"/>
		<g>
			<rect x="170.5" y="518.6" width="0.5" height="3.2"/>
		</g>
		<g>
			<rect x="219.5" y="518.6" width="0.5" height="3.2"/>
		</g>
	</g>
</g>
<g>
	<g>
		<line class="st13" x1="222.2" y1="327.9" x2="271.2" y2="327.9"/>
		<g>
			<rect x="222" y="326.3" width="0.5" height="3.2"/>
		</g>
		<g>
			<rect x="271" y="326.3" width="0.5" height="3.2"/>
		</g>
	</g>
</g>
<g>
	<g>
		<line class="st13" x1="276.6" y1="512.1" x2="325.6" y2="512.1"/>
		<g>
			<rect x="276.4" y="510.5" width="0.5" height="3.2"/>
		</g>
		<g>
			<rect x="325.4" y="510.5" width="0.5" height="3.2"/>
		</g>
	</g>
</g>
<g>
	<g>
		<line class="st13" x1="382.5" y1="439.9" x2="431.5" y2="439.9"/>
		<g>
			<rect x="382.3" y="438.3" width="0.5" height="3.2"/>
		</g>
		<g>
			<rect x="431.3" y="438.3" width="0.5" height="3.2"/>
		</g>
	</g>
</g>
<g>
	<g>
		<line class="st13" x1="328" y1="128.5" x2="377" y2="128.5"/>
		<g>
			<rect x="327.8" y="126.8" width="0.5" height="3.2"/>
		</g>
		<g>
			<rect x="376.8" y="126.8" width="0.5" height="3.2"/>
		</g>
	</g>
</g>
<g>
	<g>
		<line class="st13" x1="434" y1="224.2" x2="483" y2="224.2"/>
		<g>
			<rect x="433.7" y="222.6" width="0.5" height="3.2"/>
		</g>
		<g>
			<rect x="482.7" y="222.6" width="0.5" height="3.2"/>
		</g>
	</g>
</g>
<g>
	<g>
		<line class="st13" x1="488.3" y1="159.8" x2="537.3" y2="159.8"/>
		<g>
			<rect x="488.1" y="158.2" width="0.5" height="3.2"/>
		</g>
		<g>
			<rect x="537.1" y="158.2" width="0.5" height="3.2"/>
		</g>
	</g>
</g>
<g>
	<g>
		<line class="st13" x1="539.8" y1="255.8" x2="588.8" y2="255.8"/>
		<g>
			<rect x="539.6" y="254.2" width="0.5" height="3.2"/>
		</g>
		<g>
			<rect x="588.6" y="254.2" width="0.5" height="3.2"/>
		</g>
	</g>
</g>
<g>
	<g>
		<line class="st13" x1="594.2" y1="288.1" x2="643.2" y2="288.1"/>
		<g>
			<rect x="594" y="286.5" width="0.5" height="3.2"/>
		</g>
		<g>
			<rect x="643" y="286.5" width="0.5" height="3.2"/>
		</g>
	</g>
</g>
<g>
	<g>
		<line class="st13" x1="644.7" y1="432.8" x2="693.7" y2="432.8"/>
		<g>
			<rect x="644.4" y="431.2" width="0.5" height="3.2"/>
		</g>
		<g>
			<rect x="693.4" y="431.2" width="0.5" height="3.2"/>
		</g>
	</g>
</g>
<g>
	<g>
		<line class="st13" x1="751.5" y1="191.9" x2="800.5" y2="191.9"/>
		<g>
			<rect x="751.3" y="190.3" width="0.5" height="3.2"/>
		</g>
		<g>
			<rect x="800.3" y="190.3" width="0.5" height="3.2"/>
		</g>
	</g>
</g>
<g>
	<g>
		<line class="st13" x1="700" y1="48" x2="749" y2="48"/>
		<g>
			<rect x="699.8" y="46.4" width="0.5" height="3.2"/>
		</g>
		<g>
			<rect x="748.8" y="46.4" width="0.5" height="3.2"/>
		</g>
	</g>
</g>
<text transform="matrix(1 0 0 1 86.486 573.4147)" class="st4 st14">3</text>
<text transform="matrix(1 0 0 1 191.0175 517.5726)" class="st4 st14">10</text>
<text transform="matrix(1 0 0 1 297.7722 509.4402)" class="st4 st14">11</text>
<text transform="matrix(1 0 0 1 401.809 436.9576)" class="st4 st14">20</text>
<text transform="matrix(1 0 0 1 508.609 156.7607)" class="st4 st14">55</text>
<text transform="matrix(1 0 0 1 614.7385 284.3364)" class="st4 st14">39</text>
<text transform="matrix(1 0 0 1 721.2945 45.1541)" class="st4 st14">69</text>
<text transform="matrix(1 0 0 1 136.4006 388.9532)" class="st4 st14">26</text>
<text transform="matrix(1 0 0 1 243.3064 324.3102)" class="st4 st14">34</text>
<text transform="matrix(1 0 0 1 348.55 125.9611)" class="st4 st14">59</text>
<text transform="matrix(1 0 0 1 454.4502 222.0358)" class="st4 st14">47</text>
<text transform="matrix(1 0 0 1 560.4999 252.6067)" class="st4 st14">43</text>
<text transform="matrix(1 0 0 1 665.1501 429.81)" class="st4 st14">21</text>
<text transform="matrix(1 0 0 1 772.5143 188.9935)" class="st4 st14">51</text>
</svg>
